<svg id="Capa_1" enable-background="new 0 0 496 496" height="512" viewBox="0 0 496 496" width="512" xmlns="http://www.w3.org/2000/svg"><g><g><path d="m344 96h-216c-15.457.018-27.982 12.543-28 28v248c.018 15.457 12.543 27.982 28 28h216c15.457-.018 27.982-12.543 28-28v-248c-.018-15.457-12.543-27.982-28-28zm12 276c-.007 6.624-5.376 11.993-12 12h-216c-6.624-.007-11.993-5.376-12-12v-248c.007-6.624 5.376-11.993 12-12h216c6.624.007 11.993 5.376 12 12z"/><path d="m412 208c4.418 0 8-3.582 8-8v-64c0-4.418-3.582-8-8-8h-16v-8c-.028-26.498-21.502-47.972-48-48h-8.84l-7.21-64.88c-.445-4.054-3.871-7.123-7.95-7.12h-176c-4.079-.003-7.505 3.066-7.95 7.12l-7.21 64.88h-8.84c-26.498.028-47.972 21.502-48 48v256c.028 26.498 21.502 47.972 48 48h8.84l7.21 64.88c.445 4.054 3.871 7.123 7.95 7.12h176c4.079.003 7.505-3.066 7.95-7.12l7.21-64.88h8.84c26.498-.028 47.972-21.502 48-48v-72h16c4.418 0 8-3.582 8-8v-64c0-4.418-3.582-8-8-8h-16v-16zm-16-64h8v48h-8zm-240.84-128h161.68l6.22 56h-174.12zm161.68 464h-161.68l-6.22-56h174.12zm63.16-104c-.02 17.665-14.335 31.98-32 32h-224c-17.665-.02-31.98-14.335-32-32v-256c.02-17.665 14.335-31.98 32-32h224c17.665.02 31.98 14.335 32 32zm24-136v48h-8v-48z"/><path d="m244 244.687v-76.687c0-4.418-3.582-8-8-8s-8 3.582-8 8v80c0 2.122.843 4.157 2.343 5.657l40 40c3.124 3.124 8.19 3.124 11.314 0s3.124-8.19 0-11.314z"/></g></g></svg>