<svg id="Capa_1" enable-background="new 0 0 512.001 512.001" height="512" viewBox="0 0 512.001 512.001" width="512" xmlns="http://www.w3.org/2000/svg"><g><path d="m455.366 56.617c-36.505-36.51-85.044-56.617-136.675-56.617-51.63 0-100.172 20.107-136.683 56.618-32.065 32.075-51.902 74.577-55.857 119.677-.362 4.126 2.689 7.765 6.816 8.126 4.123.361 7.765-2.69 8.126-6.816 3.648-41.595 21.946-80.796 51.522-110.382 33.677-33.677 78.452-52.223 126.076-52.223 47.625 0 92.396 18.546 126.069 52.224 33.676 33.672 52.223 78.444 52.223 126.067 0 47.625-18.546 92.399-52.223 126.076-69.512 69.511-182.623 69.511-252.143.001-29.578-29.587-47.875-68.792-51.523-110.393-.362-4.126-4.005-7.179-8.126-6.816-4.126.362-7.178 4-6.816 8.126 3.299 37.626 17.657 73.437 40.938 102.9l-15.204 15.198-4.943-4.943c-10.86-8.996-21.719-8.994-32.577.006-7.866 7.866-8.84 20.052-2.926 28.99l-100.399 100.398c-33.726 32.999 17.832 80.111 48.964 48.979l43.38-43.38c2.929-2.929 2.929-7.678 0-10.606-2.929-2.929-7.678-2.929-10.606 0l-43.38 43.38c-16.889 16.89-45.27-10.264-27.754-27.763l100.074-100.074 27.758 27.759-33.577 33.577c-2.929 2.929-2.929 7.678 0 10.606 2.929 2.929 7.678 2.929 10.606 0l33.905-33.905c10.011 5.918 19.675 4.943 28.992-2.924 8.226-8.226 8.044-24.539.006-32.577l-4.943-4.943 15.292-15.292c75.771 59.221 187.641 52.269 255.608-15.698 36.51-36.51 56.617-85.051 56.617-136.682s-20.108-100.169-56.617-136.674zm-276.564 331.253c-.013.013-.026.026-.039.04-3.134 3.098-8.204 3.086-11.325-.033l-42.466-42.466c-3.12-3.12-3.131-8.189-.034-11.323 2.881-2.881 8.56-2.879 11.398-.041l42.466 42.466c3.136 3.786 3.136 7.571 0 11.357zm-4.941-37.516-11.369-11.365 14.378-14.372c3.633 3.944 7.433 7.72 11.4 11.329z"/><path d="m302.561 31.862c-37.563 3.475-72.978 20.111-99.722 46.845-63.292 63.292-63.292 166.275 0 229.567 62.477 62.478 167.082 62.495 229.576 0 63.292-63.292 63.292-166.275 0-229.567-26.039-26.039-59.097-42.088-95.6-46.414-4.115-.487-7.843 2.452-8.331 6.565-.488 4.114 2.452 7.843 6.565 8.331 33.125 3.926 63.126 18.492 86.759 42.125 57.443 57.443 57.443 150.911 0 208.354-56.706 56.705-151.642 56.72-208.363 0-57.443-57.443-57.443-150.911-.001-208.353 24.273-24.264 56.413-39.363 90.499-42.516 4.125-.382 7.159-4.035 6.777-8.159-.381-4.126-4.035-7.156-8.159-6.778z"/><path d="m334.752 108.137h-32.125c-12.407 0-22.5 10.093-22.5 22.5v8.563h-54.625c-4.142 0-7.5 3.358-7.5 7.5v124.249c0 4.142 3.358 7.5 7.5 7.5h186.374c4.142 0 7.5-3.358 7.5-7.5v-124.249c0-4.142-3.358-7.5-7.5-7.5h-54.625v-8.563c.001-12.407-10.093-22.5-22.499-22.5zm-39.625 22.5c0-4.136 3.364-7.5 7.5-7.5h32.125c4.136 0 7.5 3.364 7.5 7.5v8.563h-47.125zm-62.124 132.812v-61.789h62.655v8.966c0 4.142 3.358 7.5 7.5 7.5h32.865c4.142 0 7.5-3.358 7.5-7.5v-8.966h60.854v61.789zm95.52-60.323h-17.865v-17.865h17.865zm75.853-16.466h-60.854v-8.898c0-4.142-3.358-7.5-7.5-7.5h-32.865c-4.142 0-7.5 3.358-7.5 7.5v8.898h-62.655v-32.46h171.374z"/></g></svg>